<?xml version="1.0" standalone="no"?>
<!DOCTYPE svg PUBLIC "-//W3C//DTD SVG 20010904//EN"
 "http://www.w3.org/TR/2001/REC-SVG-20010904/DTD/svg10.dtd">
<svg version="1.0" xmlns="http://www.w3.org/2000/svg"
 width="38.000000pt" height="50.000000pt" viewBox="0 0 38.000000 50.000000"
 preserveAspectRatio="xMidYMid meet">
<metadata>
Created by potrace 1.10, written by Peter Selinger 2001-2011
</metadata>
<g transform="translate(0.000000,50.000000) scale(0.100000,-0.100000)"
fill="#008728" stroke="none">
<path d="M154 490 c-31 -13 -54 -50 -54 -87 0 -32 -2 -33 -39 -33 -49 0 -49 0
-53 -210 l-3 -155 185 0 185 0 -3 145 c-2 80 -5 162 -8 183 -6 36 -7 37 -45
37 -38 0 -39 1 -39 34 0 64 -69 111 -126 86z m84 -27 c12 -10 22 -33 24 -53
l3 -35 -75 0 -75 0 3 35 c3 41 32 70 72 70 15 0 37 -8 48 -17z m113 -160 c0
-32 4 -109 7 -171 l7 -112 -178 0 -177 0 4 23 c3 12 8 88 12 170 l6 147 159 0
159 0 1 -57z"/>
</g>
</svg>
