<?xml version="1.0" standalone="no"?>
<!DOCTYPE svg PUBLIC "-//W3C//DTD SVG 20010904//EN"
 "http://www.w3.org/TR/2001/REC-SVG-20010904/DTD/svg10.dtd">
<svg version="1.0" xmlns="http://www.w3.org/2000/svg"
 width="48.000000pt" height="46.000000pt" viewBox="0 0 48.000000 46.000000"
 preserveAspectRatio="xMidYMid meet">
<metadata>
Created by potrace 1.10, written by Peter Selinger 2001-2011
</metadata>
<g transform="translate(0.000000,46.000000) scale(0.100000,-0.100000)"
fill="#008728" stroke="none">
<path d="M198 387 l-36 -74 -77 -10 c-42 -6 -80 -14 -83 -18 -4 -3 20 -32 52
-63 l59 -56 -12 -79 c-7 -44 -10 -81 -7 -84 2 -3 37 12 75 33 l71 38 71 -38
c38 -21 73 -36 76 -33 3 3 -1 41 -9 84 l-14 78 60 58 c70 67 69 69 -42 82
l-63 7 -37 74 c-20 41 -39 74 -42 74 -3 0 -22 -33 -42 -73z m73 -19 c17 -35
36 -66 42 -69 5 -4 39 -10 75 -14 l64 -7 -52 -53 -53 -54 11 -67 c6 -38 9 -70
7 -72 -2 -2 -31 11 -65 29 l-61 34 -60 -33 c-33 -19 -62 -32 -64 -30 -3 2 1
34 7 72 l11 67 -53 54 -52 53 66 7 c37 4 73 13 80 20 7 7 24 38 37 69 13 31
25 56 26 56 2 0 17 -28 34 -62z"/>
</g>
</svg>
