<?xml version="1.0" standalone="no"?>
<!DOCTYPE svg PUBLIC "-//W3C//DTD SVG 20010904//EN"
 "http://www.w3.org/TR/2001/REC-SVG-20010904/DTD/svg10.dtd">
<svg version="1.0" xmlns="http://www.w3.org/2000/svg"
 width="144.000000pt" height="141.000000pt" viewBox="0 0 144.000000 141.000000"
 preserveAspectRatio="xMidYMid meet">
<metadata>
Created by potrace 1.10, written by Peter Selinger 2001-2011
</metadata>
<g transform="translate(0.000000,141.000000) scale(0.100000,-0.100000)"
fill="#008728" stroke="none">
<path d="M690 1394 c0 -21 -198 -421 -213 -431 -15 -10 -122 -29 -235 -42 -46
-6 -109 -15 -140 -21 -32 -7 -67 -14 -80 -16 -12 -2 -22 -10 -22 -17 0 -7 77
-89 171 -182 152 -151 169 -172 164 -194 -4 -15 -10 -55 -15 -91 -4 -36 -13
-92 -19 -125 -43 -226 -44 -237 -31 -245 9 -5 37 4 79 27 36 20 106 57 154 82
49 25 112 58 140 73 29 15 59 28 67 28 8 0 38 -13 67 -28 28 -15 91 -48 140
-73 48 -25 118 -62 154 -82 42 -23 70 -32 79 -27 13 8 12 19 -31 245 -6 33
-15 89 -19 125 -5 36 -11 76 -15 91 -6 22 11 43 160 190 91 90 172 165 180
167 8 2 15 10 15 17 0 9 -17 16 -47 20 -27 4 -64 11 -84 16 -19 5 -76 13 -125
19 -118 14 -226 33 -241 43 -15 10 -213 410 -213 431 0 9 -8 16 -20 16 -12 0
-20 -7 -20 -16z"/>
</g>
</svg>
