<?xml version="1.0" standalone="no"?>
<!DOCTYPE svg PUBLIC "-//W3C//DTD SVG 20010904//EN"
 "http://www.w3.org/TR/2001/REC-SVG-20010904/DTD/svg10.dtd">
<svg version="1.0" xmlns="http://www.w3.org/2000/svg"
 width="40.000000pt" height="42.000000pt" viewBox="0 0 40.000000 42.000000"
 preserveAspectRatio="xMidYMid meet">
<metadata>
Created by potrace 1.10, written by Peter Selinger 2001-2011
</metadata>
<g transform="translate(0.000000,42.000000) scale(0.050000,-0.050000)"
fill="#008728" stroke="none">
<path d="M226 819 c-35 -11 -91 -47 -124 -80 -241 -241 11 -660 332 -552 l96
33 80 -90 c148 -167 229 -93 84 76 -88 103 -89 107 -60 163 126 240 -138 532
-408 450z m263 -159 c140 -140 45 -380 -151 -380 -202 0 -315 245 -173 374
116 105 223 107 324 6z"/>
</g>
</svg>
